<?xml version="1.0" encoding="UTF-8" standalone="no" ?>
<!DOCTYPE svg PUBLIC "-//W3C//DTD SVG 1.1//EN" "http://www.w3.org/Graphics/SVG/1.1/DTD/svg11.dtd">
<svg xmlns="http://www.w3.org/2000/svg" xmlns:xlink="http://www.w3.org/1999/xlink" version="1.1" width="1080" height="1080" viewBox="0 0 1080 1080" xml:space="preserve">
<desc>Created with Fabric.js 5.2.4</desc>
<defs>
</defs>
<g transform="matrix(1 0 0 1 540 540)" id="c65c9aae-d98a-4e7c-88d9-7f1283382249"  >
<rect style="stroke: none; stroke-width: 1; stroke-dasharray: none; stroke-linecap: butt; stroke-dashoffset: 0; stroke-linejoin: miter; stroke-miterlimit: 4; fill: rgb(255,255,255); fill-rule: nonzero; opacity: 1; visibility: hidden;" vector-effect="non-scaling-stroke"  x="-540" y="-540" rx="0" ry="0" width="1080" height="1080" />
</g>
<g transform="matrix(1 0 0 1 540 540)" id="8a92634a-6be0-48e4-abad-f32a5039def6"  >
</g>
<g transform="matrix(45 0 0 45 540 540)"  >
<g style=""   >
		<g transform="matrix(1 0 0 1 0 0)"  >
<path style="stroke: none; stroke-width: 1; stroke-dasharray: none; stroke-linecap: butt; stroke-dashoffset: 0; stroke-linejoin: miter; stroke-miterlimit: 4; fill: rgb(113,137,114); fill-rule: nonzero; opacity: 1;" vector-effect="non-scaling-stroke"  transform=" translate(-12, -12)" d="M -0.00000200283 11.999 C -0.00000257978 5.39956 5.4 0.00000150025 12 9.23262e-7 C 18.6 3.46272e-7 24 5.39956 24 11.999 C 24 18.5985 18.6 23.998 12 23.998 C 5.4 24.118 -0.0000014154 18.7185 -0.00000200283 11.999 C -0.00000199234 12.119 -0.00000199234 12.119 -0.00000200283 11.999 Z M 22.2 11.999 C 22.2 6.35948 17.64 1.79985 12 1.67986 C 6.36 1.67986 1.8 6.23949 1.68 11.879 C 1.68 17.5186 6.24 22.0782 11.88 22.1982 C 11.88 22.1982 11.88 22.1982 12 22.1982 C 17.64 22.1982 22.2 17.6386 22.2 11.999 Z" stroke-linecap="round" />
</g>
		<g transform="matrix(1 0 0 1 0 -0.77)"  >
<path style="stroke: none; stroke-width: 1; stroke-dasharray: none; stroke-linecap: butt; stroke-dashoffset: 0; stroke-linejoin: miter; stroke-miterlimit: 4; fill: rgb(113,137,114); fill-rule: nonzero; opacity: 1;" vector-effect="non-scaling-stroke"  transform=" translate(-12, -11.23)" d="M 8.52031 14.1587 L 12.0003 10.679 L 15.4803 14.1587 C 15.8403 14.5187 16.4403 14.5187 16.8003 14.1587 C 17.1603 13.7988 17.1603 13.1988 16.8003 12.8388 L 12.0003 8.03924 L 7.20031 12.8388 C 6.84031 13.1988 6.84031 13.7988 7.20031 14.1587 C 7.44031 14.5187 8.04031 14.5187 8.52031 14.1587 C 8.52031 14.1587 8.40031 14.2787 8.52031 14.1587 Z" stroke-linecap="round" />
</g>
</g>
</g>
</svg>